<mxfile modified="2023-11-13T20:11:56.309Z" host="Electron" agent="Mozilla/5.0 (Macintosh; Intel Mac OS X 10_15_7) AppleWebKit/537.36 (KHTML, like Gecko) draw.io/22.0.3 Chrome/114.0.5735.289 Electron/25.8.4 Safari/537.36" etag="jHuGS4v1cpdD6A_4T458" version="22.0.3" type="device">
  <diagram id="Ht1M8jgEwFfnCIfOTk4-" name="Page-1">
    <mxGraphModel dx="3191" dy="1762" grid="1" gridSize="10" guides="1" tooltips="1" connect="1" arrows="1" fold="1" page="1" pageScale="1" pageWidth="827" pageHeight="1169" math="0" shadow="0">
      <root>
        <mxCell id="0" />
        <mxCell id="1" parent="0" />
        <mxCell id="7OVz4w7n9kzEPWy-4BBC-3" value="" style="rounded=0;whiteSpace=wrap;html=1;fillColor=#EAEDED;fontSize=22;fontColor=#FFFFFF;strokeColor=none;labelBackgroundColor=none;" parent="1" vertex="1">
          <mxGeometry x="1230" y="160" width="539" height="400" as="geometry" />
        </mxCell>
        <mxCell id="UEzPUAAOIrF-is8g5C7q-2" value="AWS Cloud" style="points=[[0,0],[0.25,0],[0.5,0],[0.75,0],[1,0],[1,0.25],[1,0.5],[1,0.75],[1,1],[0.75,1],[0.5,1],[0.25,1],[0,1],[0,0.75],[0,0.5],[0,0.25]];outlineConnect=0;gradientColor=none;html=1;whiteSpace=wrap;fontSize=12;fontStyle=0;shape=mxgraph.aws4.group;grIcon=mxgraph.aws4.group_aws_cloud_alt;strokeColor=#232F3E;fillColor=none;verticalAlign=top;align=left;spacingLeft=30;fontColor=#232F3E;dashed=0;container=1;pointerEvents=0;collapsible=0;recursiveResize=0;" parent="1" vertex="1">
          <mxGeometry x="8" y="160" width="1185" height="904" as="geometry" />
        </mxCell>
        <mxCell id="nXpsQYlE0kpcjJ9C7c4X-1" value="&lt;font color=&quot;#000000&quot;&gt;VPC&lt;/font&gt;" style="points=[[0,0],[0.25,0],[0.5,0],[0.75,0],[1,0],[1,0.25],[1,0.5],[1,0.75],[1,1],[0.75,1],[0.5,1],[0.25,1],[0,1],[0,0.75],[0,0.5],[0,0.25]];outlineConnect=0;gradientColor=none;html=1;whiteSpace=wrap;fontSize=12;fontStyle=0;container=1;pointerEvents=0;collapsible=0;recursiveResize=0;shape=mxgraph.aws4.group;grIcon=mxgraph.aws4.group_vpc;strokeColor=#248814;fillColor=none;verticalAlign=top;align=left;spacingLeft=30;fontColor=#AAB7B8;dashed=0;" vertex="1" parent="UEzPUAAOIrF-is8g5C7q-2">
          <mxGeometry x="6" y="90" width="1164" height="770" as="geometry" />
        </mxCell>
        <mxCell id="nXpsQYlE0kpcjJ9C7c4X-18" value="&lt;span style=&quot;color: rgb(0, 0, 0); font-family: Helvetica; font-size: 12px; font-style: normal; font-variant-ligatures: normal; font-variant-caps: normal; font-weight: 700; letter-spacing: normal; orphans: 2; text-align: center; text-indent: 0px; text-transform: none; widows: 2; word-spacing: 0px; -webkit-text-stroke-width: 0px; background-color: rgb(251, 251, 251); text-decoration-thickness: initial; text-decoration-style: initial; text-decoration-color: initial; float: none; display: inline !important;&quot;&gt;Deployment&lt;/span&gt;" style="text;whiteSpace=wrap;html=1;" vertex="1" parent="nXpsQYlE0kpcjJ9C7c4X-1">
          <mxGeometry x="410" y="480" width="100" height="41" as="geometry" />
        </mxCell>
        <mxCell id="nXpsQYlE0kpcjJ9C7c4X-15" value="" style="fillColor=none;strokeColor=#5A6C86;dashed=1;verticalAlign=top;fontStyle=0;fontColor=#5A6C86;whiteSpace=wrap;html=1;" vertex="1" parent="nXpsQYlE0kpcjJ9C7c4X-1">
          <mxGeometry x="410" y="440" width="230" height="130" as="geometry" />
        </mxCell>
        <mxCell id="nXpsQYlE0kpcjJ9C7c4X-19" value="" style="fillColor=none;strokeColor=#147EBA;verticalAlign=top;fontStyle=0;fontColor=#147EBA;whiteSpace=wrap;html=1;strokeWidth=2;" vertex="1" parent="nXpsQYlE0kpcjJ9C7c4X-1">
          <mxGeometry x="216" y="170" width="664" height="470" as="geometry" />
        </mxCell>
        <mxCell id="nXpsQYlE0kpcjJ9C7c4X-3" value="" style="fillColor=none;strokeColor=#5A6C86;verticalAlign=top;fontStyle=0;fontColor=#5A6C86;whiteSpace=wrap;html=1;align=center;" vertex="1" parent="nXpsQYlE0kpcjJ9C7c4X-1">
          <mxGeometry x="10" y="150" width="1041.5" height="580" as="geometry" />
        </mxCell>
        <mxCell id="nXpsQYlE0kpcjJ9C7c4X-4" value="" style="sketch=0;points=[[0,0,0],[0.25,0,0],[0.5,0,0],[0.75,0,0],[1,0,0],[0,1,0],[0.25,1,0],[0.5,1,0],[0.75,1,0],[1,1,0],[0,0.25,0],[0,0.5,0],[0,0.75,0],[1,0.25,0],[1,0.5,0],[1,0.75,0]];outlineConnect=0;fontColor=#232F3E;fillColor=#ED7100;strokeColor=#ffffff;dashed=0;verticalLabelPosition=bottom;verticalAlign=top;align=center;html=1;fontSize=12;fontStyle=0;aspect=fixed;shape=mxgraph.aws4.resourceIcon;resIcon=mxgraph.aws4.eks;" vertex="1" parent="nXpsQYlE0kpcjJ9C7c4X-1">
          <mxGeometry x="10" y="150" width="78" height="78" as="geometry" />
        </mxCell>
        <mxCell id="nXpsQYlE0kpcjJ9C7c4X-5" value="EKS Cluster" style="text;html=1;align=center;verticalAlign=middle;resizable=0;points=[];autosize=1;strokeColor=none;fillColor=none;fontStyle=1" vertex="1" parent="nXpsQYlE0kpcjJ9C7c4X-1">
          <mxGeometry x="88" y="150" width="90" height="30" as="geometry" />
        </mxCell>
        <mxCell id="nXpsQYlE0kpcjJ9C7c4X-10" style="edgeStyle=orthogonalEdgeStyle;rounded=0;orthogonalLoop=1;jettySize=auto;html=1;" edge="1" parent="nXpsQYlE0kpcjJ9C7c4X-1" source="nXpsQYlE0kpcjJ9C7c4X-6" target="nXpsQYlE0kpcjJ9C7c4X-9">
          <mxGeometry relative="1" as="geometry" />
        </mxCell>
        <mxCell id="nXpsQYlE0kpcjJ9C7c4X-6" value="Application Load Balancer" style="outlineConnect=0;dashed=0;verticalLabelPosition=bottom;verticalAlign=top;align=center;html=1;shape=mxgraph.aws3.application_load_balancer;fillColor=#F58534;gradientColor=none;" vertex="1" parent="nXpsQYlE0kpcjJ9C7c4X-1">
          <mxGeometry x="490" y="47" width="69" height="72" as="geometry" />
        </mxCell>
        <mxCell id="nXpsQYlE0kpcjJ9C7c4X-12" style="edgeStyle=orthogonalEdgeStyle;rounded=0;orthogonalLoop=1;jettySize=auto;html=1;" edge="1" parent="nXpsQYlE0kpcjJ9C7c4X-1" source="nXpsQYlE0kpcjJ9C7c4X-9" target="nXpsQYlE0kpcjJ9C7c4X-11">
          <mxGeometry relative="1" as="geometry" />
        </mxCell>
        <mxCell id="nXpsQYlE0kpcjJ9C7c4X-9" value="XYZ Ingress" style="sketch=0;html=1;dashed=0;whitespace=wrap;fillColor=#2875E2;strokeColor=#ffffff;points=[[0.005,0.63,0],[0.1,0.2,0],[0.9,0.2,0],[0.5,0,0],[0.995,0.63,0],[0.72,0.99,0],[0.5,1,0],[0.28,0.99,0]];verticalLabelPosition=bottom;align=center;verticalAlign=top;shape=mxgraph.kubernetes.icon;prIcon=ing" vertex="1" parent="nXpsQYlE0kpcjJ9C7c4X-1">
          <mxGeometry x="484" y="180" width="81" height="100" as="geometry" />
        </mxCell>
        <mxCell id="nXpsQYlE0kpcjJ9C7c4X-14" style="edgeStyle=orthogonalEdgeStyle;rounded=0;orthogonalLoop=1;jettySize=auto;html=1;" edge="1" parent="nXpsQYlE0kpcjJ9C7c4X-1" source="nXpsQYlE0kpcjJ9C7c4X-11" target="nXpsQYlE0kpcjJ9C7c4X-13">
          <mxGeometry relative="1" as="geometry" />
        </mxCell>
        <mxCell id="nXpsQYlE0kpcjJ9C7c4X-11" value="XYZ Service" style="sketch=0;html=1;dashed=0;whitespace=wrap;fillColor=#2875E2;strokeColor=#ffffff;points=[[0.005,0.63,0],[0.1,0.2,0],[0.9,0.2,0],[0.5,0,0],[0.995,0.63,0],[0.72,0.99,0],[0.5,1,0],[0.28,0.99,0]];verticalLabelPosition=bottom;align=center;verticalAlign=top;shape=mxgraph.kubernetes.icon;prIcon=svc" vertex="1" parent="nXpsQYlE0kpcjJ9C7c4X-1">
          <mxGeometry x="481.5" y="330" width="86" height="80" as="geometry" />
        </mxCell>
        <mxCell id="nXpsQYlE0kpcjJ9C7c4X-13" value="XYZ Pod" style="sketch=0;html=1;dashed=0;whitespace=wrap;fillColor=#2875E2;strokeColor=#ffffff;points=[[0.005,0.63,0],[0.1,0.2,0],[0.9,0.2,0],[0.5,0,0],[0.995,0.63,0],[0.72,0.99,0],[0.5,1,0],[0.28,0.99,0]];verticalLabelPosition=bottom;align=center;verticalAlign=top;shape=mxgraph.kubernetes.icon;prIcon=pod" vertex="1" parent="nXpsQYlE0kpcjJ9C7c4X-1">
          <mxGeometry x="469" y="460" width="111" height="82" as="geometry" />
        </mxCell>
        <mxCell id="nXpsQYlE0kpcjJ9C7c4X-16" value="" style="sketch=0;html=1;dashed=0;whitespace=wrap;fillColor=#2875E2;strokeColor=#ffffff;points=[[0.005,0.63,0],[0.1,0.2,0],[0.9,0.2,0],[0.5,0,0],[0.995,0.63,0],[0.72,0.99,0],[0.5,1,0],[0.28,0.99,0]];verticalLabelPosition=bottom;align=center;verticalAlign=top;shape=mxgraph.kubernetes.icon;prIcon=deploy" vertex="1" parent="nXpsQYlE0kpcjJ9C7c4X-1">
          <mxGeometry x="410" y="439" width="50" height="48" as="geometry" />
        </mxCell>
        <mxCell id="nXpsQYlE0kpcjJ9C7c4X-20" value="" style="shape=image;verticalLabelPosition=bottom;labelBackgroundColor=default;verticalAlign=top;aspect=fixed;imageAspect=0;image=https://www.opsmx.com/wp-content/uploads/2022/07/Argo-1-e1630327305635-1.png;" vertex="1" parent="nXpsQYlE0kpcjJ9C7c4X-1">
          <mxGeometry x="206" y="180" width="122.03" height="81" as="geometry" />
        </mxCell>
        <mxCell id="nXpsQYlE0kpcjJ9C7c4X-21" value="ArgoCD Managed" style="text;html=1;align=center;verticalAlign=middle;resizable=0;points=[];autosize=1;strokeColor=none;fillColor=none;fontStyle=1" vertex="1" parent="nXpsQYlE0kpcjJ9C7c4X-1">
          <mxGeometry x="285" y="180" width="120" height="30" as="geometry" />
        </mxCell>
        <mxCell id="nXpsQYlE0kpcjJ9C7c4X-22" value="Addons (controllers)" style="fillColor=none;strokeColor=#5A6C86;dashed=1;verticalAlign=top;fontStyle=0;fontColor=#5A6C86;whiteSpace=wrap;html=1;" vertex="1" parent="nXpsQYlE0kpcjJ9C7c4X-1">
          <mxGeometry x="656" y="210" width="184" height="360" as="geometry" />
        </mxCell>
        <mxCell id="nXpsQYlE0kpcjJ9C7c4X-23" value="" style="shape=image;verticalLabelPosition=bottom;labelBackgroundColor=default;verticalAlign=top;aspect=fixed;imageAspect=0;image=https://miro.medium.com/v2/resize:fit:1400/1*RtYcmqA45r2ZEPUmcx_oTQ.png;" vertex="1" parent="nXpsQYlE0kpcjJ9C7c4X-1">
          <mxGeometry x="674.6700000000001" y="261" width="146.67" height="110" as="geometry" />
        </mxCell>
        <mxCell id="nXpsQYlE0kpcjJ9C7c4X-24" value="" style="shape=image;verticalLabelPosition=bottom;labelBackgroundColor=default;verticalAlign=top;aspect=fixed;imageAspect=0;image=https://kubernetes-sigs.github.io/aws-load-balancer-controller/v2.6/assets/images/kubernetes_icon.svg;" vertex="1" parent="nXpsQYlE0kpcjJ9C7c4X-1">
          <mxGeometry x="686" y="390" width="55.62" height="54" as="geometry" />
        </mxCell>
        <mxCell id="nXpsQYlE0kpcjJ9C7c4X-25" value="" style="shape=image;verticalLabelPosition=bottom;labelBackgroundColor=default;verticalAlign=top;aspect=fixed;imageAspect=0;image=https://kubernetes-sigs.github.io/aws-load-balancer-controller/v2.6/assets/images/aws_load_balancer_icon.svg;" vertex="1" parent="nXpsQYlE0kpcjJ9C7c4X-1">
          <mxGeometry x="756" y="393" width="48" height="48" as="geometry" />
        </mxCell>
        <mxCell id="nXpsQYlE0kpcjJ9C7c4X-26" value="AWS LB Controller" style="text;html=1;align=center;verticalAlign=middle;resizable=0;points=[];autosize=1;strokeColor=none;fillColor=none;fontStyle=1" vertex="1" parent="nXpsQYlE0kpcjJ9C7c4X-1">
          <mxGeometry x="679" y="440" width="130" height="30" as="geometry" />
        </mxCell>
        <mxCell id="nXpsQYlE0kpcjJ9C7c4X-30" style="edgeStyle=orthogonalEdgeStyle;rounded=0;orthogonalLoop=1;jettySize=auto;html=1;entryX=1;entryY=0.5;entryDx=0;entryDy=0;entryPerimeter=0;" edge="1" parent="nXpsQYlE0kpcjJ9C7c4X-1" source="nXpsQYlE0kpcjJ9C7c4X-26" target="nXpsQYlE0kpcjJ9C7c4X-6">
          <mxGeometry relative="1" as="geometry" />
        </mxCell>
        <mxCell id="nXpsQYlE0kpcjJ9C7c4X-43" value="3" style="rounded=1;whiteSpace=wrap;html=1;fillColor=#007CBD;strokeColor=none;fontColor=#FFFFFF;fontStyle=1;fontSize=22;labelBackgroundColor=none;" vertex="1" parent="nXpsQYlE0kpcjJ9C7c4X-1">
          <mxGeometry x="316" y="210" width="40" height="38" as="geometry" />
        </mxCell>
        <mxCell id="nXpsQYlE0kpcjJ9C7c4X-44" value="4" style="rounded=1;whiteSpace=wrap;html=1;fillColor=#007CBD;strokeColor=none;fontColor=#FFFFFF;fontStyle=1;fontSize=22;labelBackgroundColor=none;" vertex="1" parent="nXpsQYlE0kpcjJ9C7c4X-1">
          <mxGeometry x="580" y="64" width="40" height="38" as="geometry" />
        </mxCell>
        <mxCell id="nXpsQYlE0kpcjJ9C7c4X-31" value="ECR" style="sketch=0;points=[[0,0,0],[0.25,0,0],[0.5,0,0],[0.75,0,0],[1,0,0],[0,1,0],[0.25,1,0],[0.5,1,0],[0.75,1,0],[1,1,0],[0,0.25,0],[0,0.5,0],[0,0.75,0],[1,0.25,0],[1,0.5,0],[1,0.75,0]];outlineConnect=0;fontColor=#232F3E;fillColor=#ED7100;strokeColor=#ffffff;dashed=0;verticalLabelPosition=bottom;verticalAlign=top;align=center;html=1;fontSize=12;fontStyle=0;aspect=fixed;shape=mxgraph.aws4.resourceIcon;resIcon=mxgraph.aws4.ecr;" vertex="1" parent="UEzPUAAOIrF-is8g5C7q-2">
          <mxGeometry x="352" y="6" width="78" height="78" as="geometry" />
        </mxCell>
        <mxCell id="nXpsQYlE0kpcjJ9C7c4X-32" style="edgeStyle=orthogonalEdgeStyle;rounded=0;orthogonalLoop=1;jettySize=auto;html=1;" edge="1" parent="UEzPUAAOIrF-is8g5C7q-2" source="nXpsQYlE0kpcjJ9C7c4X-13" target="nXpsQYlE0kpcjJ9C7c4X-31">
          <mxGeometry relative="1" as="geometry" />
        </mxCell>
        <mxCell id="nXpsQYlE0kpcjJ9C7c4X-45" value="5" style="rounded=1;whiteSpace=wrap;html=1;fillColor=#007CBD;strokeColor=none;fontColor=#FFFFFF;fontStyle=1;fontSize=22;labelBackgroundColor=none;" vertex="1" parent="UEzPUAAOIrF-is8g5C7q-2">
          <mxGeometry x="582" y="26" width="40" height="38" as="geometry" />
        </mxCell>
        <mxCell id="-QjtrjUzRDEMRZ5MF8oH-47" value="Liatrio Exercise - Basic Platform Architecture - Cloud-native XYZ App" style="text;html=1;resizable=0;points=[];autosize=1;align=left;verticalAlign=top;spacingTop=-4;fontSize=30;fontStyle=1" parent="1" vertex="1">
          <mxGeometry x="12" y="65.5" width="1010" height="40" as="geometry" />
        </mxCell>
        <mxCell id="SCVMTBWpLvtzJIhz15lM-1" value="" style="line;strokeWidth=2;html=1;fontSize=14;" parent="1" vertex="1">
          <mxGeometry x="8" y="140.5" width="1060" height="10" as="geometry" />
        </mxCell>
        <mxCell id="7OVz4w7n9kzEPWy-4BBC-4" value="1" style="rounded=1;whiteSpace=wrap;html=1;fillColor=#007CBD;strokeColor=none;fontColor=#FFFFFF;fontStyle=1;fontSize=22;labelBackgroundColor=none;" parent="1" vertex="1">
          <mxGeometry x="1248" y="172" width="40" height="38" as="geometry" />
        </mxCell>
        <mxCell id="7OVz4w7n9kzEPWy-4BBC-5" value="2" style="rounded=1;whiteSpace=wrap;html=1;fillColor=#007CBD;strokeColor=none;fontColor=#FFFFFF;fontStyle=1;fontSize=22;labelBackgroundColor=none;" parent="1" vertex="1">
          <mxGeometry x="1249" y="251.5" width="40" height="38" as="geometry" />
        </mxCell>
        <mxCell id="7OVz4w7n9kzEPWy-4BBC-6" value="3" style="rounded=1;whiteSpace=wrap;html=1;fillColor=#007CBD;strokeColor=none;fontColor=#FFFFFF;fontStyle=1;fontSize=22;labelBackgroundColor=none;" parent="1" vertex="1">
          <mxGeometry x="1249" y="320" width="40" height="38" as="geometry" />
        </mxCell>
        <mxCell id="7OVz4w7n9kzEPWy-4BBC-7" value="4" style="rounded=1;whiteSpace=wrap;html=1;fillColor=#007CBD;strokeColor=none;fontColor=#FFFFFF;fontStyle=1;fontSize=22;labelBackgroundColor=none;" parent="1" vertex="1">
          <mxGeometry x="1249" y="410" width="40" height="38" as="geometry" />
        </mxCell>
        <mxCell id="7OVz4w7n9kzEPWy-4BBC-8" value="5" style="rounded=1;whiteSpace=wrap;html=1;fillColor=#007CBD;strokeColor=none;fontColor=#FFFFFF;fontStyle=1;fontSize=22;labelBackgroundColor=none;" parent="1" vertex="1">
          <mxGeometry x="1249" y="493" width="40" height="38" as="geometry" />
        </mxCell>
        <mxCell id="7OVz4w7n9kzEPWy-4BBC-13" value="&lt;span&gt;End-to-end process is coordinated through a Makefile.&amp;nbsp; Source code (written in Go) is built into a Docker image, tested, and pushed to Amazon ECR.&lt;/span&gt;" style="text;html=1;align=left;verticalAlign=top;spacingTop=-4;fontSize=14;labelBackgroundColor=none;whiteSpace=wrap;" parent="1" vertex="1">
          <mxGeometry x="1299.5" y="171.5" width="449" height="118" as="geometry" />
        </mxCell>
        <mxCell id="7OVz4w7n9kzEPWy-4BBC-14" value="&lt;span&gt;All infrastructure, including the ArgoCD installation on top of EKS, is built with Terraform.&lt;/span&gt;" style="text;html=1;align=left;verticalAlign=top;spacingTop=-4;fontSize=14;labelBackgroundColor=none;whiteSpace=wrap;" parent="1" vertex="1">
          <mxGeometry x="1299.5" y="251.5" width="450" height="115" as="geometry" />
        </mxCell>
        <mxCell id="7OVz4w7n9kzEPWy-4BBC-15" value="&lt;span&gt;The &quot;XYZ&quot; application is managed by ArgoCD.&amp;nbsp; Two core system components, external-dns and AWS load balancer controller, are also deployed and managed by ArgoCD.&lt;/span&gt;" style="text;html=1;align=left;verticalAlign=top;spacingTop=-4;fontSize=14;labelBackgroundColor=none;whiteSpace=wrap;" parent="1" vertex="1">
          <mxGeometry x="1299.5" y="320" width="450" height="117" as="geometry" />
        </mxCell>
        <mxCell id="7OVz4w7n9kzEPWy-4BBC-16" value="&lt;span&gt;When the Ingress resource within the XYZ ArgoCD Application CRD is deployed, AWS load balancer controller automatically configures the public-facing ALB and target group.&amp;nbsp;&lt;/span&gt;" style="text;html=1;align=left;verticalAlign=top;spacingTop=-4;fontSize=14;labelBackgroundColor=none;whiteSpace=wrap;" parent="1" vertex="1">
          <mxGeometry x="1298.5" y="410" width="450" height="121" as="geometry" />
        </mxCell>
        <mxCell id="7OVz4w7n9kzEPWy-4BBC-17" value="&lt;span&gt;In addition, external-dns automatically configures the record within the public hosted zone used to configure DNS for the application.&lt;/span&gt;" style="text;html=1;align=left;verticalAlign=top;spacingTop=-4;fontSize=14;labelBackgroundColor=none;whiteSpace=wrap;" parent="1" vertex="1">
          <mxGeometry x="1299.5" y="493" width="449" height="114" as="geometry" />
        </mxCell>
        <mxCell id="nXpsQYlE0kpcjJ9C7c4X-8" style="edgeStyle=orthogonalEdgeStyle;rounded=0;orthogonalLoop=1;jettySize=auto;html=1;" edge="1" parent="1" source="nXpsQYlE0kpcjJ9C7c4X-7" target="nXpsQYlE0kpcjJ9C7c4X-6">
          <mxGeometry relative="1" as="geometry" />
        </mxCell>
        <mxCell id="nXpsQYlE0kpcjJ9C7c4X-7" value="xyz.zyonash.com" style="sketch=0;points=[[0,0,0],[0.25,0,0],[0.5,0,0],[0.75,0,0],[1,0,0],[0,1,0],[0.25,1,0],[0.5,1,0],[0.75,1,0],[1,1,0],[0,0.25,0],[0,0.5,0],[0,0.75,0],[1,0.25,0],[1,0.5,0],[1,0.75,0]];outlineConnect=0;fontColor=#232F3E;fillColor=#8C4FFF;strokeColor=#ffffff;dashed=0;verticalLabelPosition=bottom;verticalAlign=top;align=center;html=1;fontSize=12;fontStyle=1;aspect=fixed;shape=mxgraph.aws4.resourceIcon;resIcon=mxgraph.aws4.route_53;" vertex="1" parent="1">
          <mxGeometry x="500" y="166" width="78" height="78" as="geometry" />
        </mxCell>
        <mxCell id="nXpsQYlE0kpcjJ9C7c4X-27" value="Terraform" style="shape=image;verticalLabelPosition=bottom;labelBackgroundColor=default;verticalAlign=top;aspect=fixed;imageAspect=0;image=https://blogs.vmware.com/cloudprovider/files/2019/04/og-image-8b3e4f7d-blog-aspect-ratio.png;fontStyle=1;fontSize=17;" vertex="1" parent="1">
          <mxGeometry x="424.38" y="1090" width="229.25" height="172" as="geometry" />
        </mxCell>
        <mxCell id="nXpsQYlE0kpcjJ9C7c4X-28" style="edgeStyle=orthogonalEdgeStyle;rounded=0;orthogonalLoop=1;jettySize=auto;html=1;exitX=0.5;exitY=0;exitDx=0;exitDy=0;entryX=0.494;entryY=1.01;entryDx=0;entryDy=0;entryPerimeter=0;" edge="1" parent="1" source="nXpsQYlE0kpcjJ9C7c4X-41" target="nXpsQYlE0kpcjJ9C7c4X-3">
          <mxGeometry relative="1" as="geometry" />
        </mxCell>
        <mxCell id="nXpsQYlE0kpcjJ9C7c4X-29" style="edgeStyle=orthogonalEdgeStyle;rounded=0;orthogonalLoop=1;jettySize=auto;html=1;entryX=1;entryY=0.5;entryDx=0;entryDy=0;entryPerimeter=0;" edge="1" parent="1" source="nXpsQYlE0kpcjJ9C7c4X-23" target="nXpsQYlE0kpcjJ9C7c4X-7">
          <mxGeometry relative="1" as="geometry" />
        </mxCell>
        <mxCell id="nXpsQYlE0kpcjJ9C7c4X-34" style="edgeStyle=orthogonalEdgeStyle;rounded=0;orthogonalLoop=1;jettySize=auto;html=1;" edge="1" parent="1" source="nXpsQYlE0kpcjJ9C7c4X-35">
          <mxGeometry relative="1" as="geometry">
            <mxPoint x="420" y="1195" as="targetPoint" />
          </mxGeometry>
        </mxCell>
        <mxCell id="nXpsQYlE0kpcjJ9C7c4X-33" value="Client" style="outlineConnect=0;dashed=0;verticalLabelPosition=bottom;verticalAlign=top;align=center;html=1;shape=mxgraph.aws3.management_console;fillColor=#D2D3D3;gradientColor=none;" vertex="1" parent="1">
          <mxGeometry x="70" y="1140" width="108" height="110" as="geometry" />
        </mxCell>
        <mxCell id="nXpsQYlE0kpcjJ9C7c4X-36" value="" style="edgeStyle=orthogonalEdgeStyle;rounded=0;orthogonalLoop=1;jettySize=auto;html=1;" edge="1" parent="1" source="nXpsQYlE0kpcjJ9C7c4X-33" target="nXpsQYlE0kpcjJ9C7c4X-35">
          <mxGeometry relative="1" as="geometry">
            <mxPoint x="420" y="1195" as="targetPoint" />
            <mxPoint x="178" y="1195" as="sourcePoint" />
          </mxGeometry>
        </mxCell>
        <mxCell id="nXpsQYlE0kpcjJ9C7c4X-35" value="" style="image;sketch=0;aspect=fixed;html=1;points=[];align=center;fontSize=12;image=img/lib/mscae/Docker.svg;" vertex="1" parent="1">
          <mxGeometry x="238.05" y="1145" width="121.95" height="100" as="geometry" />
        </mxCell>
        <mxCell id="nXpsQYlE0kpcjJ9C7c4X-37" style="edgeStyle=orthogonalEdgeStyle;rounded=0;orthogonalLoop=1;jettySize=auto;html=1;entryX=0;entryY=0.25;entryDx=0;entryDy=0;entryPerimeter=0;" edge="1" parent="1" source="nXpsQYlE0kpcjJ9C7c4X-35" target="nXpsQYlE0kpcjJ9C7c4X-31">
          <mxGeometry relative="1" as="geometry">
            <Array as="points">
              <mxPoint x="210" y="1195" />
              <mxPoint x="210" y="186" />
            </Array>
          </mxGeometry>
        </mxCell>
        <mxCell id="nXpsQYlE0kpcjJ9C7c4X-38" value="Makefile" style="fillColor=none;strokeColor=#5A6C86;dashed=1;verticalAlign=top;fontStyle=0;fontColor=#5A6C86;whiteSpace=wrap;html=1;" vertex="1" parent="1">
          <mxGeometry x="12" y="1080" width="728" height="260" as="geometry" />
        </mxCell>
        <mxCell id="nXpsQYlE0kpcjJ9C7c4X-39" value="" style="sketch=0;aspect=fixed;pointerEvents=1;shadow=0;dashed=0;html=1;strokeColor=none;labelPosition=center;verticalLabelPosition=bottom;verticalAlign=top;align=center;fillColor=#00188D;shape=mxgraph.azure.file" vertex="1" parent="1">
          <mxGeometry x="300" y="1080" width="47" height="50" as="geometry" />
        </mxCell>
        <mxCell id="nXpsQYlE0kpcjJ9C7c4X-40" value="1" style="rounded=1;whiteSpace=wrap;html=1;fillColor=#007CBD;strokeColor=none;fontColor=#FFFFFF;fontStyle=1;fontSize=22;labelBackgroundColor=none;" vertex="1" parent="1">
          <mxGeometry x="250" y="1086" width="40" height="38" as="geometry" />
        </mxCell>
        <mxCell id="nXpsQYlE0kpcjJ9C7c4X-42" value="" style="edgeStyle=orthogonalEdgeStyle;rounded=0;orthogonalLoop=1;jettySize=auto;html=1;exitX=0.5;exitY=0;exitDx=0;exitDy=0;entryX=0.494;entryY=1.01;entryDx=0;entryDy=0;entryPerimeter=0;" edge="1" parent="1" source="nXpsQYlE0kpcjJ9C7c4X-27" target="nXpsQYlE0kpcjJ9C7c4X-41">
          <mxGeometry relative="1" as="geometry">
            <mxPoint x="539" y="1090" as="sourcePoint" />
            <mxPoint x="539" y="986" as="targetPoint" />
          </mxGeometry>
        </mxCell>
        <mxCell id="nXpsQYlE0kpcjJ9C7c4X-41" value="2" style="rounded=1;whiteSpace=wrap;html=1;fillColor=#007CBD;strokeColor=none;fontColor=#FFFFFF;fontStyle=1;fontSize=22;labelBackgroundColor=none;" vertex="1" parent="1">
          <mxGeometry x="519.01" y="1020" width="40" height="38" as="geometry" />
        </mxCell>
      </root>
    </mxGraphModel>
  </diagram>
</mxfile>
